<mxfile host="app.diagrams.net" modified="2022-02-20T08:52:36.565Z" agent="5.0 (Windows NT 10.0; Win64; x64) AppleWebKit/537.36 (KHTML, like Gecko) Chrome/98.0.4758.102 Safari/537.36 Edg/98.0.1108.56" etag="HotmBg0EeWYk-huhGQbP" version="16.5.6" type="github">
  <diagram id="N9MB9ejKq_MT2Lqwyt88" name="Page-1">
    <mxGraphModel dx="1422" dy="794" grid="1" gridSize="10" guides="1" tooltips="1" connect="1" arrows="1" fold="1" page="1" pageScale="1" pageWidth="827" pageHeight="1169" math="0" shadow="0">
      <root>
        <mxCell id="0" />
        <mxCell id="1" parent="0" />
        <mxCell id="NcU2C8-HqA2MQM9Z4zy4-3" style="edgeStyle=orthogonalEdgeStyle;rounded=0;orthogonalLoop=1;jettySize=auto;html=1;entryX=0.5;entryY=0;entryDx=0;entryDy=0;" edge="1" parent="1" source="NcU2C8-HqA2MQM9Z4zy4-1" target="NcU2C8-HqA2MQM9Z4zy4-4">
          <mxGeometry relative="1" as="geometry">
            <mxPoint x="560" y="410" as="targetPoint" />
          </mxGeometry>
        </mxCell>
        <mxCell id="NcU2C8-HqA2MQM9Z4zy4-1" value="加载.dng文件" style="rounded=1;whiteSpace=wrap;html=1;" vertex="1" parent="1">
          <mxGeometry x="350" y="380" width="120" height="60" as="geometry" />
        </mxCell>
        <mxCell id="NcU2C8-HqA2MQM9Z4zy4-7" style="edgeStyle=orthogonalEdgeStyle;rounded=0;orthogonalLoop=1;jettySize=auto;html=1;" edge="1" parent="1" source="NcU2C8-HqA2MQM9Z4zy4-4" target="NcU2C8-HqA2MQM9Z4zy4-6">
          <mxGeometry relative="1" as="geometry" />
        </mxCell>
        <mxCell id="NcU2C8-HqA2MQM9Z4zy4-10" value="Y" style="edgeLabel;html=1;align=center;verticalAlign=middle;resizable=0;points=[];" vertex="1" connectable="0" parent="NcU2C8-HqA2MQM9Z4zy4-7">
          <mxGeometry x="-0.2789" y="-1" relative="1" as="geometry">
            <mxPoint as="offset" />
          </mxGeometry>
        </mxCell>
        <mxCell id="NcU2C8-HqA2MQM9Z4zy4-11" style="edgeStyle=orthogonalEdgeStyle;rounded=0;orthogonalLoop=1;jettySize=auto;html=1;entryX=0.5;entryY=0;entryDx=0;entryDy=0;exitX=0;exitY=0.5;exitDx=0;exitDy=0;" edge="1" parent="1" source="NcU2C8-HqA2MQM9Z4zy4-4" target="NcU2C8-HqA2MQM9Z4zy4-1">
          <mxGeometry relative="1" as="geometry">
            <mxPoint x="610" y="310" as="targetPoint" />
            <Array as="points">
              <mxPoint x="310" y="550" />
              <mxPoint x="310" y="350" />
              <mxPoint x="410" y="350" />
            </Array>
          </mxGeometry>
        </mxCell>
        <mxCell id="NcU2C8-HqA2MQM9Z4zy4-12" value="N" style="edgeLabel;html=1;align=center;verticalAlign=middle;resizable=0;points=[];" vertex="1" connectable="0" parent="NcU2C8-HqA2MQM9Z4zy4-11">
          <mxGeometry x="-0.1945" y="-1" relative="1" as="geometry">
            <mxPoint x="-1" as="offset" />
          </mxGeometry>
        </mxCell>
        <mxCell id="NcU2C8-HqA2MQM9Z4zy4-4" value="文件是否正确" style="rhombus;whiteSpace=wrap;html=1;" vertex="1" parent="1">
          <mxGeometry x="370" y="510" width="80" height="80" as="geometry" />
        </mxCell>
        <mxCell id="NcU2C8-HqA2MQM9Z4zy4-14" style="edgeStyle=orthogonalEdgeStyle;rounded=0;orthogonalLoop=1;jettySize=auto;html=1;" edge="1" parent="1" source="NcU2C8-HqA2MQM9Z4zy4-6" target="NcU2C8-HqA2MQM9Z4zy4-13">
          <mxGeometry relative="1" as="geometry" />
        </mxCell>
        <mxCell id="NcU2C8-HqA2MQM9Z4zy4-6" value="加载属性配置文件" style="rounded=1;whiteSpace=wrap;html=1;" vertex="1" parent="1">
          <mxGeometry x="350" y="640" width="120" height="60" as="geometry" />
        </mxCell>
        <mxCell id="NcU2C8-HqA2MQM9Z4zy4-9" style="edgeStyle=orthogonalEdgeStyle;rounded=0;orthogonalLoop=1;jettySize=auto;html=1;" edge="1" parent="1" source="NcU2C8-HqA2MQM9Z4zy4-8" target="NcU2C8-HqA2MQM9Z4zy4-6">
          <mxGeometry relative="1" as="geometry" />
        </mxCell>
        <mxCell id="NcU2C8-HqA2MQM9Z4zy4-8" value=".json" style="rounded=1;whiteSpace=wrap;html=1;" vertex="1" parent="1">
          <mxGeometry x="530" y="640" width="120" height="60" as="geometry" />
        </mxCell>
        <mxCell id="NcU2C8-HqA2MQM9Z4zy4-13" value="生成Revit模型" style="rounded=1;whiteSpace=wrap;html=1;" vertex="1" parent="1">
          <mxGeometry x="350" y="750" width="120" height="60" as="geometry" />
        </mxCell>
      </root>
    </mxGraphModel>
  </diagram>
</mxfile>
